<svg xmlns="http://www.w3.org/2000/svg" width="32" height="32" viewBox="0 0 32 32">
  <defs>
    <radialGradient id="grad1" cx="50%" cy="50%" r="50%">
      <stop offset="0%" style="stop-color:#00ff88;stop-opacity:1" />
      <stop offset="100%" style="stop-color:#0088ff;stop-opacity:0.8" />
    </radialGradient>
    <radialGradient id="grad2" cx="50%" cy="50%" r="40%">
      <stop offset="0%" style="stop-color:#ff0088;stop-opacity:1" />
      <stop offset="100%" style="stop-color:#8800ff;stop-opacity:0.8" />
    </radialGradient>
    <radialGradient id="grad3" cx="50%" cy="50%" r="35%">
      <stop offset="0%" style="stop-color:#ff8800;stop-opacity:1" />
      <stop offset="100%" style="stop-color:#ffff00;stop-opacity:0.8" />
    </radialGradient>
  </defs>
  
  <!-- Background -->
  <rect width="32" height="32" fill="#0a0a0a"/>
  
  <!-- Grid lines for spatial hashing -->
  <g stroke="#333" stroke-width="0.3" opacity="0.4">
    <line x1="8" y1="0" x2="8" y2="32"/>
    <line x1="16" y1="0" x2="16" y2="32"/>
    <line x1="24" y1="0" x2="24" y2="32"/>
    <line x1="0" y1="8" x2="32" y2="8"/>
    <line x1="0" y1="16" x2="32" y2="16"/>
    <line x1="0" y1="24" x2="32" y2="24"/>
  </g>
  
  <!-- Particle clusters -->
  <circle cx="6" cy="6" r="3" fill="url(#grad1)" opacity="0.9"/>
  <circle cx="4" cy="8" r="2" fill="url(#grad1)" opacity="0.7"/>
  <circle cx="8" cy="4" r="2.5" fill="url(#grad1)" opacity="0.8"/>
  
  <circle cx="20" cy="12" r="3.5" fill="url(#grad2)" opacity="0.9"/>
  <circle cx="18" cy="15" r="2.5" fill="url(#grad2)" opacity="0.7"/>
  <circle cx="23" cy="10" r="2" fill="url(#grad2)" opacity="0.8"/>
  
  <circle cx="14" cy="26" r="3" fill="url(#grad3)" opacity="0.9"/>
  <circle cx="16" cy="24" r="2" fill="url(#grad3)" opacity="0.7"/>
  <circle cx="12" cy="28" r="2.5" fill="url(#grad3)" opacity="0.8"/>
  
  <!-- Small scattered particles -->
  <circle cx="28" cy="4" r="1.5" fill="#0088ff" opacity="0.6"/>
  <circle cx="10" cy="18" r="1" fill="#ff0088" opacity="0.5"/>
  <circle cx="26" cy="28" r="1.2" fill="#00ff88" opacity="0.6"/>
</svg>